<svg aria-hidden="true" style="position:absolute;width:0;height:0;overflow:hidden" xmlns="http://www.w3.org/2000/svg">
  <defs>
    <symbol id="Logo" viewBox="0 0 107 32">
      <path fill="#e60000" d="M26.996 12.845c-0.224-7.014-5.907-12.674-12.945-12.845-0.181 0-0.331 0.139-0.331 0.32l-0.011 4.712c0 0.234-0.181 0.416-0.416 0.426-7.016 0.213-12.678 5.905-12.849 12.941 0 0.181 0.139 0.33 0.32 0.33l4.702 0.011c0.235 0 0.416 0.181 0.426 0.416 0.224 7.014 5.918 12.674 12.945 12.845 0.181 0 0.331-0.139 0.331-0.32l0.011-4.712c0-0.235 0.181-0.416 0.416-0.426 7.016-0.224 12.678-5.916 12.849-12.941 0-0.181-0.139-0.33-0.32-0.33l-4.702-0.011c-0.235 0-0.416-0.181-0.427-0.416zM18.71 26.51c-3.988-0.235-7.187-3.475-7.336-7.483-0.011-0.171-0.149-0.309-0.32-0.309l-4.692-0.011c-0.245 0-0.437-0.203-0.426-0.448 0.235-3.987 3.476-7.185 7.486-7.334 0.171-0.011 0.309-0.149 0.309-0.32l0.011-4.701c0-0.245 0.203-0.437 0.448-0.426 3.988 0.234 7.187 3.475 7.336 7.483 0.011 0.171 0.149 0.309 0.32 0.309l4.692 0.011c0.245 0 0.437 0.203 0.427 0.448-0.235 4.093-3.636 7.344-7.784 7.344l-0.011 5.010c-0.011 0.245-0.213 0.437-0.459 0.426z"/>
      <path fill="#fff" d="M13.581 13.164c0-.645.692-1.054 1.257-.743l5.219 2.871c.586.322.586 1.164 0 1.486l-5.219 2.871c-.565.311-1.257-.098-1.257-.743v-5.741zM34.044 14.35c0-.405.076-.784.229-1.139s.359-.664.62-.928c.265-.268.572-.48.923-.634s.725-.232 1.125-.232h4.431v1.957h-4.431c-.135 0-.26.025-.377.075s-.22.12-.31.211c-.085.086-.153.189-.202.307s-.074.245-.074.382c0 .136.025.266.074.389.049.118.117.223.202.314.09.086.193.155.31.205s.242.075.377.075h1.933c.4 0 .774.077 1.125.232.355.15.662.359.923.627.265.264.471.575.62.934.153.355.229.734.229 1.139s-.076.784-.229 1.139c-.148.355-.355.666-.62.934-.26.264-.568.473-.923.627-.35.155-.725.232-1.125.232h-4.29v-1.957h4.29c.135 0 .26-.025.377-.075s.218-.118.303-.205c.09-.091.159-.196.209-.314s.074-.245.074-.382c0-.136-.025-.264-.074-.382s-.119-.221-.209-.307c-.085-.091-.186-.161-.303-.211s-.242-.075-.377-.075h-1.933c-.4 0-.774-.077-1.125-.232s-.658-.364-.923-.627c-.26-.268-.467-.58-.62-.934-.153-.359-.229-.741-.229-1.146zM46.341 21.197c-.444 0-.862-.084-1.253-.252-.391-.173-.734-.407-1.03-.702-.292-.3-.523-.648-.694-1.044-.166-.396-.249-.818-.249-1.269v-2.169h-.896v-1.855h.896v-2.919h1.832v2.919h2.788v1.855h-2.788v2.169c0 .196.036.38.108.552.072.168.171.316.296.443s.274.23.444.307c.171.073.352.109.545.109h1.394v1.855h-1.394zM50.61 21.197h-1.838v-7.304h.444l.606.866c.296-.273.633-.482 1.01-.627.377-.15.768-.225 1.172-.225h1.623v1.855h-1.623c-.193 0-.375.036-.545.109s-.319.173-.444.3-.224.277-.296.45c-.072.173-.108.357-.108.552v4.024zM57.217 19.41c.072.023.143.039.215.048.072.005.144.007.215.007.18 0 .353-.025.518-.075s.321-.12.465-.211c.148-.095.278-.209.39-.341.117-.136.211-.286.283-.45l1.347 1.371c-.171.246-.369.466-.593.662-.22.196-.46.361-.721.498-.255.136-.527.239-.814.307-.283.073-.575.109-.876.109-.507 0-.985-.095-1.434-.286-.445-.191-.835-.457-1.172-.798-.332-.341-.595-.746-.788-1.214-.193-.473-.29-.991-.29-1.555 0-.577.097-1.105.29-1.582s.456-.884.788-1.221c.337-.336.727-.598 1.172-.784.449-.186.927-.28 1.434-.28.301 0 .595.036.882.109s.559.177.815.314c.26.136.503.305.727.505.225.196.422.416.593.662l-3.448 4.208zM58.159 15.57c-.085-.032-.171-.052-.256-.061-.081-.009-.166-.014-.256-.014-.251 0-.489.048-.714.143-.22.091-.413.223-.579.396-.162.173-.29.382-.384.627-.094.241-.141.514-.141.818 0 .068.002.145.007.232.009.086.02.175.034.266.018.086.038.171.06.252s.052.155.088.218l2.141-2.878zM68.523 21.197h-.444l-.714-1.003c-.175.159-.361.309-.559.45-.193.136-.397.257-.613.361-.215.1-.438.18-.667.239-.225.059-.453.089-.687.089-.507 0-.985-.086-1.434-.259-.445-.173-.835-.423-1.172-.75-.332-.332-.595-.737-.788-1.214s-.29-1.021-.29-1.63c0-.568.097-1.089.29-1.562.193-.477.455-.887.788-1.228.337-.341.727-.605 1.172-.791.449-.191.927-.286 1.434-.286.234 0 .465.03.694.089s.451.141.667.246.42.227.613.368c.197.141.381.293.552.457l.714-.866h.444v7.291zM66.671 17.48c0-.255-.05-.5-.148-.737-.094-.241-.225-.452-.39-.634-.166-.186-.362-.334-.586-.443-.22-.114-.455-.171-.707-.171s-.489.043-.714.13c-.22.086-.413.214-.579.382-.162.168-.29.377-.384.627-.094.245-.141.527-.141.846s.047.602.141.853c.094.246.222.452.384.621.166.168.359.296.579.382.225.086.462.13.714.13s.487-.055.707-.164c.225-.114.42-.261.586-.443.166-.186.296-.398.39-.634.099-.241.148-.489.148-.743zM79.102 21.197h-1.831v-4.638c0-.127-.025-.248-.074-.361-.045-.114-.11-.214-.195-.3s-.184-.152-.297-.198c-.112-.05-.231-.075-.357-.075s-.245.025-.357.075c-.108.046-.204.111-.29.198-.081.086-.146.186-.195.3-.045.114-.068.234-.068.361v4.638h-1.838v-4.638c0-.127-.025-.248-.074-.361-.045-.114-.11-.214-.195-.3s-.184-.152-.296-.198c-.113-.05-.231-.075-.357-.075s-.245.025-.357.075c-.108.046-.204.111-.29.198-.081.086-.146.186-.195.3-.045.114-.067.234-.067.361v4.638h-1.838v-7.304h.444l.499.559c.255-.218.537-.386.842-.505.31-.123.631-.184.963-.184.337 0 .664.064.983.191.323.127.606.348.849.662.112-.155.24-.286.384-.396s.294-.198.451-.266c.162-.068.327-.116.498-.143.171-.032.339-.048.505-.048.381 0 .739.073 1.071.218.337.146.628.346.875.6.251.25.449.546.593.887s.215.705.215 1.091v4.638zM88.025 11.417l-3.172 9.78h-1.933l-3.158-9.78h2.195l1.926 6.527 1.933-6.527h2.209zM90.927 11.908c0 .173-.034.334-.101.484-.063.15-.15.282-.262.396-.113.109-.245.198-.397.266-.148.064-.308.095-.478.095s-.332-.032-.485-.095c-.148-.068-.278-.157-.39-.266-.108-.114-.196-.246-.263-.396-.063-.15-.094-.311-.094-.484 0-.168.031-.327.094-.477.067-.155.155-.286.263-.396.112-.114.242-.202.39-.266.153-.068.314-.102.485-.102s.33.034.478.102c.153.064.285.152.397.266.112.109.199.241.262.396.067.15.101.309.101.477zM90.611 21.197h-1.852v-7.304h1.852v7.304zM99.237 17.48c0 .573-.097 1.096-.29 1.569s-.455.88-.788 1.221c-.332.336-.723.598-1.172.784-.444.186-.923.28-1.434.28-.507 0-.986-.095-1.435-.286-.444-.191-.835-.457-1.172-.798-.332-.341-.595-.746-.788-1.214-.193-.473-.29-.991-.29-1.555v-6.493h1.845v3.41c.099-.127.218-.241.357-.341.143-.1.296-.182.458-.246.166-.064.337-.111.511-.143.175-.036.346-.055.512-.055.511 0 .99.098 1.434.293.449.191.839.459 1.172.805s.595.755.788 1.228c.193.468.29.982.29 1.541zM97.386 17.48c0-.282-.049-.543-.148-.784-.094-.245-.225-.457-.39-.634s-.362-.316-.586-.416c-.22-.1-.456-.15-.707-.15s-.49.057-.714.171c-.22.109-.413.257-.579.443-.166.182-.296.393-.39.634-.094.236-.141.482-.141.737 0 .282.047.543.141.784s.225.45.39.627c.166.177.359.318.579.423.225.1.462.15.714.15s.487-.05.707-.15c.224-.105.42-.245.586-.423s.297-.386.39-.627c.099-.241.148-.502.148-.784zM103.13 19.41c.071.023.143.039.215.048.071.005.143.007.215.007.179 0 .352-.025.518-.075s.321-.12.465-.211c.148-.095.278-.209.39-.341.117-.136.211-.286.283-.45l1.347 1.371c-.171.246-.368.466-.593.662-.22.196-.46.361-.721.498-.256.136-.527.239-.815.307-.283.073-.574.109-.875.109-.508 0-.986-.095-1.435-.286-.444-.191-.835-.457-1.172-.798-.332-.341-.595-.746-.788-1.214-.193-.473-.29-.991-.29-1.555 0-.577.097-1.105.29-1.582s.455-.884.788-1.221c.337-.336.727-.598 1.172-.784.449-.186.927-.28 1.435-.28.301 0 .595.036.882.109s.559.177.815.314c.26.136.502.305.727.505.225.196.422.416.593.662l-3.447 4.208zM104.073 15.57c-.085-.032-.171-.052-.256-.061-.081-.009-.166-.014-.255-.014-.252 0-.49.048-.714.143-.22.091-.413.223-.579.396-.162.173-.29.382-.383.627-.094.241-.142.514-.142.818 0 .068.003.145.007.232.009.086.02.175.034.266.018.086.038.171.061.252s.052.155.087.218l2.141-2.878z"/>
    </symbol>
     <symbol id="magnifying-glass" viewBox="0 0 32 32">
      <path fill="none" stroke="#fff" stroke-linejoin="round" stroke-linecap="round" stroke-width="2" d="M28 28l-6.929-6.929M21.071 21.071c1.81-1.81 2.929-4.31 2.929-7.071 0-5.523-4.477-10-10-10s-10 4.477-10 10c0 5.523 4.477 10 10 10 2.761 0 5.261-1.119 7.071-2.929z"/>
    </symbol>
    <symbol id="bell" viewBox="0 0 32 32">
      <path fill="none" stroke="#fff" stroke-linejoin="round" stroke-linecap="round" stroke-width="2" d="M19.809 22.776c2.526-0.3 4.962-0.893 7.272-1.746-1.916-2.127-3.082-4.942-3.082-8.029v-0.934c0-0.022 0-0.044 0-0.066 0-4.418-3.582-8-8-8s-8 3.582-8 8l-0 1c0 3.087-1.166 5.903-3.082 8.029 2.311 0.853 4.747 1.447 7.273 1.747M19.809 22.776c-1.249 0.148-2.52 0.224-3.809 0.224s-2.56-0.076-3.809-0.224M19.809 22.776c0.124 0.386 0.191 0.797 0.191 1.224 0 2.209-1.791 4-4 4s-4-1.791-4-4c0-0.427 0.067-0.838 0.191-1.224"/>
    </symbol>
    <symbol id="play" viewBox="0 0 32 32">
      <path fill="#fff" d="M6 7.537c0-1.902 2.039-3.107 3.705-2.191l15.387 8.463c1.727 0.95 1.727 3.431 0 4.381l-15.387 8.463c-1.666 0.916-3.705-0.289-3.705-2.191v-16.926z"></path>
    </symbol>
  </defs>
</svg>